{
    "asset" : {
        "generator" : "Khronos glTF Blender I/O v3.4.50",
        "version" : "2.0"
    },
    "scene" : 0,
    "scenes" : [
        {
            "name" : "Scene",
            "nodes" : [
                0,
                1,
                2,
                3,
                4,
                5,
                6,
                7
            ]
        }
    ],
    "nodes" : [
        {
            "mesh" : 0,
            "name" : "Cube",
            "scale" : [
                0.48788154125213623,
                0.48788154125213623,
                0.48788154125213623
            ],
            "translation" : [
                0,
                2.1288228034973145,
                0
            ]
        },
        {
            "mesh" : 1,
            "name" : "Cube.001",
            "rotation" : [
                0.06320300698280334,
                0.23383931815624237,
                0.012946223840117455,
                0.9701324105262756
            ],
            "scale" : [
                0.03629744052886963,
                0.06206698715686798,
                0.03179382160305977
            ],
            "translation" : [
                -0.21232008934020996,
                2.1039764881134033,
                -0.3165961802005768
            ]
        },
        {
            "mesh" : 2,
            "name" : "Cube.002",
            "rotation" : [
                -0.015065179206430912,
                0.24861489236354828,
                0.11522647738456726,
                0.9616062641143799
            ],
            "scale" : [
                0.021786507219076157,
                0.01796884462237358,
                0.014625176787376404
            ],
            "translation" : [
                -0.2129731923341751,
                2.2276132106781006,
                -0.3016450107097626
            ]
        },
        {
            "mesh" : 3,
            "name" : "Cube.003",
            "rotation" : [
                -0.1805017590522766,
                0,
                0,
                0.9835746884346008
            ],
            "scale" : [
                0.04369112104177475,
                0.006471291184425354,
                0.007506129331886768
            ],
            "translation" : [
                0.02276737242937088,
                1.8873298168182373,
                -0.3383665382862091
            ]
        },
        {
            "mesh" : 4,
            "name" : "Cube.004",
            "rotation" : [
                -0.08551660925149918,
                0.13488446176052094,
                -0.4085811972618103,
                0.8986403346061707
            ],
            "scale" : [
                0.025682011619210243,
                0.02500752918422222,
                0.022990355268120766
            ],
            "translation" : [
                -0.22706855833530426,
                1.9778376817703247,
                -0.29659268260002136
            ]
        },
        {
            "mesh" : 5,
            "name" : "Sphere.001",
            "scale" : [
                0.20792721211910248,
                0.20792721211910248,
                0.20792721211910248
            ],
            "translation" : [
                0.16820697486400604,
                2.5383996963500977,
                -0.2706909775733948
            ]
        },
        {
            "mesh" : 6,
            "name" : "Cube.005",
            "scale" : [
                0.21562689542770386,
                0.21562689542770386,
                0.21562689542770386
            ],
            "translation" : [
                0,
                1.4103869199752808,
                0
            ]
        },
        {
            "mesh" : 7,
            "name" : "Cube.006",
            "rotation" : [
                1,
                0,
                0,
                0
            ],
            "scale" : [
                -0.08155352622270584,
                -0.022238368168473244,
                -0.023060046136379242
            ],
            "translation" : [
                -0.21224620938301086,
                1.5886846780776978,
                0.00018581202311906964
            ]
        }
    ],
    "materials" : [
        {
            "doubleSided" : true,
            "name" : "Material.001",
            "pbrMetallicRoughness" : {
                "baseColorFactor" : [
                    0.800000011920929,
                    0.800000011920929,
                    0.800000011920929,
                    1
                ],
                "metallicFactor" : 0,
                "roughnessFactor" : 0.5
            }
        }
    ],
    "meshes" : [
        {
            "name" : "Cube.002",
            "primitives" : [
                {
                    "attributes" : {
                        "POSITION" : 0,
                        "TEXCOORD_0" : 1,
                        "NORMAL" : 2
                    },
                    "indices" : 3,
                    "material" : 0
                }
            ]
        },
        {
            "name" : "Cube.003",
            "primitives" : [
                {
                    "attributes" : {
                        "POSITION" : 4,
                        "TEXCOORD_0" : 5,
                        "NORMAL" : 6
                    },
                    "indices" : 7
                }
            ]
        },
        {
            "name" : "Cube.004",
            "primitives" : [
                {
                    "attributes" : {
                        "POSITION" : 8,
                        "TEXCOORD_0" : 9,
                        "NORMAL" : 10
                    },
                    "indices" : 11
                }
            ]
        },
        {
            "name" : "Cube.005",
            "primitives" : [
                {
                    "attributes" : {
                        "POSITION" : 12,
                        "TEXCOORD_0" : 13,
                        "NORMAL" : 14
                    },
                    "indices" : 15
                }
            ]
        },
        {
            "name" : "Cube.006",
            "primitives" : [
                {
                    "attributes" : {
                        "POSITION" : 16,
                        "TEXCOORD_0" : 17,
                        "NORMAL" : 18
                    },
                    "indices" : 19
                }
            ]
        },
        {
            "name" : "Sphere.002",
            "primitives" : [
                {
                    "attributes" : {
                        "POSITION" : 20,
                        "NORMAL" : 21
                    },
                    "indices" : 22
                }
            ]
        },
        {
            "name" : "Cube.010",
            "primitives" : [
                {
                    "attributes" : {
                        "POSITION" : 23,
                        "TEXCOORD_0" : 24,
                        "NORMAL" : 25
                    },
                    "indices" : 26
                }
            ]
        },
        {
            "name" : "Cube",
            "primitives" : [
                {
                    "attributes" : {
                        "POSITION" : 27,
                        "TEXCOORD_0" : 28,
                        "NORMAL" : 29
                    },
                    "indices" : 30
                }
            ]
        }
    ],
    "accessors" : [
        {
            "bufferView" : 0,
            "componentType" : 5126,
            "count" : 2673,
            "max" : [
                1.065900206565857,
                0.8363328576087952,
                0.8383902311325073
            ],
            "min" : [
                -1.065900206565857,
                -1.1024346351623535,
                -0.9394239187240601
            ],
            "type" : "VEC3"
        },
        {
            "bufferView" : 1,
            "componentType" : 5126,
            "count" : 2673,
            "type" : "VEC2"
        },
        {
            "bufferView" : 2,
            "componentType" : 5126,
            "count" : 2673,
            "type" : "VEC3"
        },
        {
            "bufferView" : 3,
            "componentType" : 5123,
            "count" : 15984,
            "type" : "SCALAR"
        },
        {
            "bufferView" : 4,
            "componentType" : 5126,
            "count" : 882,
            "max" : [
                11.205248832702637,
                0.8698474168777466,
                7.020914077758789
            ],
            "min" : [
                -0.8395062685012817,
                -0.8395062685012817,
                -0.8395062685012817
            ],
            "type" : "VEC3"
        },
        {
            "bufferView" : 5,
            "componentType" : 5126,
            "count" : 882,
            "type" : "VEC2"
        },
        {
            "bufferView" : 6,
            "componentType" : 5126,
            "count" : 882,
            "type" : "VEC3"
        },
        {
            "bufferView" : 7,
            "componentType" : 5123,
            "count" : 4608,
            "type" : "SCALAR"
        },
        {
            "bufferView" : 8,
            "componentType" : 5126,
            "count" : 538,
            "max" : [
                18.19171142578125,
                1.4960216283798218,
                17.09884262084961
            ],
            "min" : [
                -2.569610118865967,
                -6.926758766174316,
                -1.169034719467163
            ],
            "type" : "VEC3"
        },
        {
            "bufferView" : 9,
            "componentType" : 5126,
            "count" : 538,
            "type" : "VEC2"
        },
        {
            "bufferView" : 10,
            "componentType" : 5126,
            "count" : 538,
            "type" : "VEC3"
        },
        {
            "bufferView" : 11,
            "componentType" : 5123,
            "count" : 2688,
            "type" : "SCALAR"
        },
        {
            "bufferView" : 12,
            "componentType" : 5126,
            "count" : 445,
            "max" : [
                1.3690844774246216,
                9.861603736877441,
                6.235775947570801
            ],
            "min" : [
                -5.584728717803955,
                -0.6214139461517334,
                -1.1861129999160767
            ],
            "type" : "VEC3"
        },
        {
            "bufferView" : 13,
            "componentType" : 5126,
            "count" : 445,
            "type" : "VEC2"
        },
        {
            "bufferView" : 14,
            "componentType" : 5126,
            "count" : 445,
            "type" : "VEC3"
        },
        {
            "bufferView" : 15,
            "componentType" : 5123,
            "count" : 2112,
            "type" : "SCALAR"
        },
        {
            "bufferView" : 16,
            "componentType" : 5126,
            "count" : 75,
            "max" : [
                0.7291837334632874,
                0.7425047159194946,
                -0.3211166262626648
            ],
            "min" : [
                0.09961795806884766,
                -0.6738904118537903,
                -1.122929573059082
            ],
            "type" : "VEC3"
        },
        {
            "bufferView" : 17,
            "componentType" : 5126,
            "count" : 75,
            "type" : "VEC2"
        },
        {
            "bufferView" : 18,
            "componentType" : 5126,
            "count" : 75,
            "type" : "VEC3"
        },
        {
            "bufferView" : 19,
            "componentType" : 5123,
            "count" : 336,
            "type" : "SCALAR"
        },
        {
            "bufferView" : 20,
            "componentType" : 5126,
            "count" : 4374,
            "max" : [
                1.7668263912200928,
                0.9579439759254456,
                3.889611005783081
            ],
            "min" : [
                -3.125174045562744,
                -3.7395496368408203,
                -1.0272501707077026
            ],
            "type" : "VEC3"
        },
        {
            "bufferView" : 21,
            "componentType" : 5126,
            "count" : 4374,
            "type" : "VEC3"
        },
        {
            "bufferView" : 22,
            "componentType" : 5123,
            "count" : 26232,
            "type" : "SCALAR"
        },
        {
            "bufferView" : 23,
            "componentType" : 5126,
            "count" : 10972,
            "max" : [
                2.30234432220459,
                1.0051549673080444,
                0.39604783058166504
            ],
            "min" : [
                -2.3023438453674316,
                -6.5155181884765625,
                -1.475279688835144
            ],
            "type" : "VEC3"
        },
        {
            "bufferView" : 24,
            "componentType" : 5126,
            "count" : 10972,
            "type" : "VEC2"
        },
        {
            "bufferView" : 25,
            "componentType" : 5126,
            "count" : 10972,
            "type" : "VEC3"
        },
        {
            "bufferView" : 26,
            "componentType" : 5123,
            "count" : 61920,
            "type" : "SCALAR"
        },
        {
            "bufferView" : 27,
            "componentType" : 5126,
            "count" : 5942,
            "max" : [
                11.469582557678223,
                1.837902545928955,
                4.190911769866943
            ],
            "min" : [
                -16.674659729003906,
                -7.30029821395874,
                -6.962947368621826
            ],
            "type" : "VEC3"
        },
        {
            "bufferView" : 28,
            "componentType" : 5126,
            "count" : 5942,
            "type" : "VEC2"
        },
        {
            "bufferView" : 29,
            "componentType" : 5126,
            "count" : 5942,
            "type" : "VEC3"
        },
        {
            "bufferView" : 30,
            "componentType" : 5123,
            "count" : 29952,
            "type" : "SCALAR"
        }
    ],
    "bufferViews" : [
        {
            "buffer" : 0,
            "byteLength" : 32076,
            "byteOffset" : 0,
            "target" : 34962
        },
        {
            "buffer" : 0,
            "byteLength" : 21384,
            "byteOffset" : 32076,
            "target" : 34962
        },
        {
            "buffer" : 0,
            "byteLength" : 32076,
            "byteOffset" : 53460,
            "target" : 34962
        },
        {
            "buffer" : 0,
            "byteLength" : 31968,
            "byteOffset" : 85536,
            "target" : 34963
        },
        {
            "buffer" : 0,
            "byteLength" : 10584,
            "byteOffset" : 117504,
            "target" : 34962
        },
        {
            "buffer" : 0,
            "byteLength" : 7056,
            "byteOffset" : 128088,
            "target" : 34962
        },
        {
            "buffer" : 0,
            "byteLength" : 10584,
            "byteOffset" : 135144,
            "target" : 34962
        },
        {
            "buffer" : 0,
            "byteLength" : 9216,
            "byteOffset" : 145728,
            "target" : 34963
        },
        {
            "buffer" : 0,
            "byteLength" : 6456,
            "byteOffset" : 154944,
            "target" : 34962
        },
        {
            "buffer" : 0,
            "byteLength" : 4304,
            "byteOffset" : 161400,
            "target" : 34962
        },
        {
            "buffer" : 0,
            "byteLength" : 6456,
            "byteOffset" : 165704,
            "target" : 34962
        },
        {
            "buffer" : 0,
            "byteLength" : 5376,
            "byteOffset" : 172160,
            "target" : 34963
        },
        {
            "buffer" : 0,
            "byteLength" : 5340,
            "byteOffset" : 177536,
            "target" : 34962
        },
        {
            "buffer" : 0,
            "byteLength" : 3560,
            "byteOffset" : 182876,
            "target" : 34962
        },
        {
            "buffer" : 0,
            "byteLength" : 5340,
            "byteOffset" : 186436,
            "target" : 34962
        },
        {
            "buffer" : 0,
            "byteLength" : 4224,
            "byteOffset" : 191776,
            "target" : 34963
        },
        {
            "buffer" : 0,
            "byteLength" : 900,
            "byteOffset" : 196000,
            "target" : 34962
        },
        {
            "buffer" : 0,
            "byteLength" : 600,
            "byteOffset" : 196900,
            "target" : 34962
        },
        {
            "buffer" : 0,
            "byteLength" : 900,
            "byteOffset" : 197500,
            "target" : 34962
        },
        {
            "buffer" : 0,
            "byteLength" : 672,
            "byteOffset" : 198400,
            "target" : 34963
        },
        {
            "buffer" : 0,
            "byteLength" : 52488,
            "byteOffset" : 199072,
            "target" : 34962
        },
        {
            "buffer" : 0,
            "byteLength" : 52488,
            "byteOffset" : 251560,
            "target" : 34962
        },
        {
            "buffer" : 0,
            "byteLength" : 52464,
            "byteOffset" : 304048,
            "target" : 34963
        },
        {
            "buffer" : 0,
            "byteLength" : 131664,
            "byteOffset" : 356512,
            "target" : 34962
        },
        {
            "buffer" : 0,
            "byteLength" : 87776,
            "byteOffset" : 488176,
            "target" : 34962
        },
        {
            "buffer" : 0,
            "byteLength" : 131664,
            "byteOffset" : 575952,
            "target" : 34962
        },
        {
            "buffer" : 0,
            "byteLength" : 123840,
            "byteOffset" : 707616,
            "target" : 34963
        },
        {
            "buffer" : 0,
            "byteLength" : 71304,
            "byteOffset" : 831456,
            "target" : 34962
        },
        {
            "buffer" : 0,
            "byteLength" : 47536,
            "byteOffset" : 902760,
            "target" : 34962
        },
        {
            "buffer" : 0,
            "byteLength" : 71304,
            "byteOffset" : 950296,
            "target" : 34962
        },
        {
            "buffer" : 0,
            "byteLength" : 59904,
            "byteOffset" : 1021600,
            "target" : 34963
        }
    ],
    "buffers" : [
        {
            "byteLength" : 1081504,
            "uri" : "data:application/octet-stream;base64,"
        }
    ]
}
